<?xml version="1.0" encoding="UTF-8"?><svg id="Layer_2" xmlns="http://www.w3.org/2000/svg" viewBox="0 0 1920.11 411.39"><defs><style>.cls-1{fill:#6997a1;}.cls-2{fill:#141622;}.cls-3{fill:#80b1bf;}.cls-4{fill:#45626e;}</style></defs><g id="Layer_1-2"><g><path class="cls-3" d="m.01,114.08s42.34-17.54,57.44-18.08c0,0,9.17-17.8,28.04-15.1,0,0,11.33-22.65,30.2-19.42,18.88,3.24,31.82,11.87,30.2,29.12,0,0,4.85-14.02,12.94-1.08,8.09,12.94,18.34,0,22.65-7.55,4.31-7.55,19.42-22.11,26.97-14.02s23.19,10.79,32.36,9.71c9.17-1.08,18.88,2.7,21.57,3.24s12.4-22.65,15.1-12.94c2.7,9.71,11.87,16.18,19.42,1.08s9.71,6.47,9.71,6.47c0,0,2.16-24.27,8.63-5.39,0,0,21.03,4.85,26.97,5.39,5.93.54,16.72-16.18,22.65-16.18s17.8-4.31,33.44,10.79c15.64,15.1,68.49,11.87,97.08,3.24,28.58-8.63,53.93-40.45,63.64-38.83,9.71,1.62,25.89,14.02,37.75,4.31,11.87-9.71,26.43-22.65,32.36-22.65s5.39-16.18,5.39-16.18c0,0,31.28,3.24,30.2,14.02,0,0,15.1-8.63,24.81-6.47,9.71,2.16,67.96,11.33,105.71,72.27,0,0,48.81,19.42,58.52,18.61s35.19-2.83,55.01,16.99c0,0,33.17-5.66,53.39,0,20.22,5.66,62.7,1.62,76.85,8.09,14.16,6.47,92.22,0,97.89,1.62,5.66,1.62,208.45-6.47,214.92,26.97,0,0,49.62,18.34,72.27,24.81,22.65,6.47,88.45-15.1,103.55-14.02,15.1,1.08,202.25,16.72,228.67,42.07,26.43,25.35,163.42,51.1,163.42,51.1v155.19L.03,411.33.01,114.08Z"/><path class="cls-1" d="m390.3,411.33l8-258.7s101.93-59.87,115.69-50.97c13.75,8.9,80.09,44.49,80.09,44.49,0,0,24.27-27.51,50.16-27.51,0,0,40.45-19.42,51.78,1.62,11.33,21.03,22.65,29.12,22.65,29.12l228.13,22.65,14.56-27.51,48.54,27.51s61.48-20.22,76.04-30.74c14.56-10.52,58.25-15.37,58.25-15.37v-12.94l59.06,1.62,4.04,15.37s17.8,18.88,42.07,26.43c24.27,7.55,105.17,33.98,133.75,37.75s63.1,7.01,86.29,20.49c23.19,13.48,180.13-8.63,215.73-8.63s234.88,11.19,234.88,11.19l.1,194.09-1529.81.02Z"/><path class="cls-4" d="m1919.88,411.37L.06,411.39l-.06-188.13s201.99-22.63,232.19-45.28c30.2-22.65,83.06-50.7,98.16-74.43,15.1-23.73,16.18-41.53,34.52-44.22,18.34-2.7,21.03-2.7,44.22,16.18,23.19,18.88,65.8,49.62,90.61,56.09,24.81,6.47,117.57,37.21,170.43,18.34,52.85-18.88,73.35-37.75,73.35-37.75l10.79,7.55s44.76-49.08,60.4-48.54,30.2,5.93,32.36,34.52c0,0,23.73,14.56,30.2,36.67,0,0,41.53,23.73,87.37,23.73,0,0,46.38,12.4,65.8,28.04,19.42,15.64,62.02,4.85,77.66,12.94,15.64,8.09,359.19,139.15,432.54,149.39,73.35,10.25,379.28,46.79,379.28,46.79v8.09Z"/><path class="cls-2" d="m1898.03,411.37S307.43,332.02.01,114.4l.04,296.92,1897.98.04Z"/></g></g></svg>