<?xml version="1.0" encoding="UTF-8"?><svg id="Layer_2" xmlns="http://www.w3.org/2000/svg" viewBox="0 0 59.14 58.6"><defs><style>.cls-1{fill:#141622;}</style></defs><g id="Layer_1-2"><g><polygon class="cls-1" points="9.19 32.61 7.52 31.51 13.99 21.71 16.56 25.74 23.22 16.09 30.24 26.99 33.72 21.85 40.69 30.72 39.12 31.96 33.84 25.24 30.2 30.62 23.16 19.69 16.49 29.35 13.96 25.38 9.19 32.61"/><path class="cls-1" d="m23.32,46.64C10.46,46.64,0,36.18,0,23.32S10.46,0,23.32,0s23.32,10.46,23.32,23.32-10.46,23.32-23.32,23.32Zm0-39.64c-9,0-16.32,7.32-16.32,16.32s7.32,16.32,16.32,16.32,16.32-7.32,16.32-16.32S32.32,7,23.32,7Z"/><path class="cls-1" d="m55.14,58.6c-1.02,0-2.05-.39-2.83-1.17l-15.84-15.84c-1.56-1.56-1.56-4.09,0-5.66,1.56-1.56,4.1-1.56,5.66,0l15.84,15.84c1.56,1.56,1.56,4.09,0,5.66-.78.78-1.8,1.17-2.83,1.17Z"/></g></g></svg>